<svg width="30" height="39" viewBox="0 0 30 39" fill="none" xmlns="http://www.w3.org/2000/svg">
<g id="Group">
<path id="Vector" d="M14.6709 9.10735V38.6187L2.27967 33.4958V14.1865L14.6709 9.10735ZM14.6709 8.20975V0L10.2924 1.66384V6.58969L5.30086 8.60382V3.61229L0.177979 5.93291V12.2161L2.27967 13.2232L14.6709 8.20975ZM6.17657 4.05014V7.31215L9.78886 6.02048L6.17657 4.05014Z" fill="url(#paint0_linear_51_29)"/>
<path id="Vector_2" d="M14.6709 8.20975V0L19.0494 1.66384V6.58969L24.041 8.60382V3.61229L29.1638 5.93291V12.2161L27.0622 13.2232L14.6709 8.20975ZM19.553 5.99859L23.1653 7.29026V4.05014L19.553 5.99859ZM14.6709 9.10735V38.6187L21.3263 35.8602V27.0156L27.0622 26.4026V22.1992L21.3263 21.7832V17.7768L27.0622 18.9809V14.274L14.6709 9.10735Z" fill="#5A6863"/>
</g>
<defs>
<linearGradient id="paint0_linear_51_29" x1="14.6708" y1="19.3058" x2="0.177869" y2="19.3058" gradientUnits="userSpaceOnUse">
<stop stop-color="#929C87"/>
<stop offset="1" stop-color="#5A6863"/>
</linearGradient>
</defs>
</svg>
