<svg width="59" height="59" viewBox="0 0 59 59" fill="none" xmlns="http://www.w3.org/2000/svg">
<g id="adapt-to-change (1)" clip-path="url(#clip0_90_1198)">
<g id="Group">
<g id="Group_2">
<path id="Vector" d="M17.0232 26.9844C14.4316 26.9844 12.3232 29.0929 12.3232 31.6843C12.3232 34.2759 14.4317 36.3844 17.0232 36.3844C19.6148 36.3844 21.7233 34.2759 21.7233 31.6843C21.7233 29.0929 19.6149 26.9844 17.0232 26.9844Z" fill="black"/>
<path id="Vector_2" d="M20.3955 21.4242C20.909 21.593 21.41 21.8008 21.8931 22.0454L23.7475 20.1909C23.9992 19.9393 24.4069 19.9393 24.6585 20.1909L28.5168 24.0491C28.7683 24.3006 28.7683 24.7084 28.5168 24.96L26.6624 26.8145C26.9068 27.2976 27.1146 27.7985 27.2834 28.3121H29.9053C30.2611 28.3121 30.5494 28.6004 30.5494 28.9562V31.5301L34.6325 28.9169C34.0066 24.8828 32.4979 21.136 29.5952 18.0946C28.8573 17.3215 28.0523 16.6442 27.1937 16.0571L20.3955 20.1386V21.4242Z" fill="black"/>
<path id="Vector_3" d="M26.1853 34.2398C26.2628 33.9612 26.5166 33.7684 26.8058 33.7684H29.2612V29.6001H26.8058C26.5166 29.6001 26.2628 29.4073 26.1853 29.1287C25.9803 28.3925 25.6853 27.6808 25.3082 27.0137C25.1659 26.7618 25.209 26.446 25.4135 26.2414L27.1503 24.5044L24.203 21.5572L22.4661 23.294C22.2614 23.4988 21.9456 23.5415 21.6937 23.3994C21.0263 23.0222 20.3148 22.7271 19.5786 22.5224C19.3 22.4447 19.1073 22.1911 19.1073 21.9017V19.4463H14.9391V21.9017C14.9391 22.1909 14.7463 22.4447 14.4676 22.5224C13.7315 22.7272 13.0198 23.0223 12.3525 23.3994C12.1008 23.5416 11.785 23.4986 11.5801 23.294L9.84327 21.5572L6.89592 24.5044L8.63276 26.2414C8.83737 26.446 8.88036 26.7618 8.73803 27.0137C8.36096 27.6809 8.06596 28.3926 7.86097 29.1287C7.78344 29.4073 7.52966 29.6001 7.24046 29.6001H4.78516V33.7684H7.24059C7.52979 33.7684 7.78357 33.9612 7.8611 34.2398C8.06609 34.9761 8.36109 35.6878 8.73816 36.3548C8.88049 36.6067 8.83737 36.9225 8.63289 37.1271L6.89592 38.8641L9.84327 41.8114L11.5801 40.0746C11.7847 39.8697 12.1007 39.827 12.3525 39.9692C13.0197 40.3463 13.7312 40.6413 14.4676 40.8461C14.7462 40.9238 14.9391 41.1775 14.9391 41.4668V43.9222H19.1073V41.4668C19.1073 41.1776 19.3 40.9238 19.5786 40.8461C20.315 40.6412 21.0267 40.3462 21.6937 39.9692C21.9457 39.8271 22.2614 39.87 22.4661 40.0746L24.203 41.8114L27.1503 38.8641L25.4135 37.1271C25.2089 36.9225 25.1659 36.6067 25.3082 36.3548C25.6853 35.6878 25.9804 34.9761 26.1853 34.2398ZM17.0231 37.6726C13.7213 37.6726 11.0349 34.9862 11.0349 31.6844C11.0349 28.3825 13.7211 25.6963 17.0231 25.6963C20.3251 25.6963 23.0114 28.3825 23.0114 31.6844C23.0114 34.9862 20.3251 37.6726 17.0231 37.6726Z" fill="black"/>
<path id="Vector_4" d="M38.3398 41.0758C37.7126 39.9752 36.9027 38.4403 36.1841 36.8473C35.4655 35.3558 34.8775 32.7203 34.8775 30.9826C34.8593 30.7641 34.8382 30.5464 34.8155 30.3292L30.5496 33.0594V34.4127C30.5496 34.7684 30.2612 35.0567 29.9055 35.0567H27.2835C27.1147 35.5702 26.9069 36.0712 26.6625 36.5543L28.517 38.4089C28.7685 38.6604 28.7685 39.0682 28.517 39.3197L24.6586 43.1781C24.3549 43.4297 24.0514 43.4297 23.7477 43.1781L21.8932 41.3236C21.4102 41.568 20.9092 41.7757 20.3956 41.9446V44.5666C20.3956 44.9223 20.1072 45.2107 19.7516 45.2107H14.2951C13.9393 45.2107 13.651 44.9223 13.651 44.5666V41.9446C13.1374 41.7758 12.6364 41.568 12.1534 41.3236L10.2989 43.1781C9.99525 43.4297 9.69167 43.4297 9.38797 43.1781L5.52965 39.3197C5.27814 39.0682 5.27814 38.6604 5.52965 38.4089L7.38412 36.5543C7.13967 36.0712 6.93191 35.5703 6.7631 35.0567H4.14113C3.78537 35.0567 3.49705 34.7684 3.49705 34.4127V28.9562C3.49705 28.6004 3.7855 28.3121 4.14113 28.3121H6.7631C6.93191 27.7986 7.13967 27.2976 7.38412 26.8145L5.52965 24.9599C5.27814 24.6564 5.27814 24.3528 5.52965 24.0491L9.38797 20.1909C9.63961 19.9393 10.0473 19.9394 10.2989 20.1909L12.1534 22.0454C12.6365 21.8008 13.1375 21.5931 13.651 21.4242V18.8022C13.651 18.4465 13.9394 18.1582 14.2951 18.1582H19.7516C20.0539 18.1582 20.3057 18.3673 20.3751 18.6483L25.9593 15.2958C23.193 13.7582 19.9831 13.0453 16.7032 13.0263C10.5141 12.9904 4.24628 16.2424 1.38225 23.3934C-0.872605 29.023 -0.340219 35.4235 2.77077 40.6232C4.28435 43.152 5.14502 45.9973 5.13254 48.9565L5.08778 59H27.2601V57.1488C27.248 57.1488 27.2359 57.1485 27.2236 57.1478C24.6024 56.9993 21.8405 56.2603 19.0146 54.9516C18.6917 54.8022 18.5513 54.4192 18.7008 54.0963C18.8502 53.7736 19.2332 53.6329 19.5559 53.7826C22.2288 55.0204 24.8285 55.7193 27.2829 55.8605H29.2985C32.3869 55.8605 34.8906 53.3657 34.8906 50.2879V43.5662H37.0856C38.2483 43.5664 38.9669 42.1183 38.3398 41.0758Z" fill="black"/>
</g>
<g id="Group_3">
<path id="Vector_5" d="M46.9463 7.74329C44.544 7.74329 42.5898 9.7121 42.5898 12.1321C42.5898 14.5521 44.544 16.5209 46.9463 16.5209C49.3485 16.5209 51.3028 14.5521 51.3028 12.1321C51.3028 9.7121 49.3484 7.74329 46.9463 7.74329Z" fill="black"/>
<path id="Vector_6" d="M58.9997 14.7015V9.56266H56.0995C55.892 8.81218 55.5958 8.09888 55.223 7.43488L57.2744 5.37026L53.6642 1.73659L51.6128 3.80121C50.953 3.42603 50.2444 3.12788 49.4987 2.91899V0H44.3931V2.91899C43.6474 3.12788 42.9388 3.42603 42.279 3.80121L40.2277 1.73659L36.6176 5.37026L38.6689 7.43488C38.2962 8.09888 37.9999 8.81218 37.7924 9.56266H34.8922V9.97314L25.959 15.2958C26.3812 15.5304 26.7936 15.7835 27.1937 16.0571L34.8922 11.4352V14.7015H37.7924C37.9999 15.4519 38.2962 16.1652 38.6689 16.8292L36.6176 18.8939L40.2278 22.5275L42.2792 20.4629C42.9389 20.8381 43.6475 21.1364 44.3932 21.3451V22.6508L34.6325 28.9168C34.705 29.384 34.7656 29.855 34.8152 30.3293L44.3932 24.1991V24.2641H49.4988V21.3451C50.2445 21.1362 50.9532 20.8381 51.6129 20.4629L53.6643 22.5275L57.2745 18.8939L55.2231 16.8292C55.5959 16.1651 55.8922 15.4519 56.0997 14.7015H58.9997ZM46.946 17.8092C43.8335 17.8092 41.3014 15.2625 41.3014 12.1321C41.3014 9.00179 43.8335 6.45508 46.946 6.45508C50.0585 6.45508 52.5907 9.00179 52.5907 12.1321C52.5907 15.2623 50.0583 17.8092 46.946 17.8092Z" fill="black"/>
</g>
<path id="Vector_7" d="M16.6455 0.25769H24.3748V7.98694H16.6455V0.25769Z" fill="black"/>
<path id="Vector_8" d="M50.4335 44.4433C52.9236 44.4433 54.9422 42.4247 54.9422 39.9346C54.9422 37.4445 52.9236 35.4259 50.4335 35.4259C47.9434 35.4259 45.9248 37.4445 45.9248 39.9346C45.9248 42.4247 47.9434 44.4433 50.4335 44.4433Z" fill="black"/>
</g>
</g>
<defs>
<clipPath id="clip0_90_1198">
<rect width="59" height="59" fill="white"/>
</clipPath>
</defs>
</svg>
