<svg width="23" height="17" viewBox="0 0 23 17" fill="none" xmlns="http://www.w3.org/2000/svg">
<path d="M22.207 7.293L15.207 0.292996C15.0184 0.110838 14.7658 0.0100427 14.5036 0.0123211C14.2414 0.0145995 13.9906 0.119769 13.8052 0.305177C13.6198 0.490585 13.5146 0.741397 13.5123 1.00359C13.51 1.26579 13.6108 1.51839 13.793 1.707L19.086 7H1.5C1.23478 7 0.98043 7.10535 0.792893 7.29289C0.605357 7.48042 0.5 7.73478 0.5 8C0.5 8.26521 0.605357 8.51957 0.792893 8.7071C0.98043 8.89464 1.23478 9 1.5 9H19.086L13.793 14.293C13.6975 14.3852 13.6213 14.4956 13.5689 14.6176C13.5165 14.7396 13.4889 14.8708 13.4877 15.0036C13.4866 15.1364 13.5119 15.2681 13.5622 15.3909C13.6125 15.5138 13.6867 15.6255 13.7806 15.7194C13.8745 15.8133 13.9861 15.8875 14.109 15.9378C14.2319 15.9881 14.3636 16.0134 14.4964 16.0122C14.6292 16.0111 14.7604 15.9835 14.8824 15.9311C15.0044 15.8787 15.1148 15.8025 15.207 15.707L22.207 8.707C22.3945 8.51947 22.4998 8.26516 22.4998 8C22.4998 7.73483 22.3945 7.48052 22.207 7.293Z" fill="black"/>
</svg>
