<svg width="59" height="59" viewBox="0 0 59 59" fill="none" xmlns="http://www.w3.org/2000/svg">
<g id="checks">
<path id="Vector" fill-rule="evenodd" clip-rule="evenodd" d="M44.1506 15.2295C43.6261 15.1293 43.1166 14.9833 42.6054 14.7881C42.6864 14.2391 42.7336 13.6793 42.7453 13.1105L42.9747 13.2049C43.46 13.4045 43.9457 13.5508 44.453 13.6476C44.9544 13.7434 45.483 13.7893 46.0595 13.7893H49.1503V13.7914C49.2634 13.7914 49.378 13.8144 49.4874 13.8648C49.6686 13.9484 49.8038 14.0907 49.8813 14.2587C49.9587 14.4267 55.1225 25.5354 55.1225 25.5354H53.3471L49.1502 16.5058L44.9534 25.5354H43.178L47.8876 15.4025H46.0595C45.3913 15.4025 44.7635 15.3464 44.1506 15.2295ZM40.5681 27.1487C40.5681 31.8885 44.4105 35.7308 49.1502 35.7308C53.8899 35.7308 57.7323 31.8884 57.7323 27.1487H40.5681ZM9.84977 16.5058L14.0466 25.5354H15.822L11.1124 15.4025H12.9406C13.6088 15.4025 14.2366 15.3464 14.8496 15.2295C15.374 15.1293 15.8836 14.9833 16.3947 14.7881C16.3137 14.2391 16.2665 13.6792 16.2548 13.1105L16.0254 13.2049C15.5402 13.4045 15.0544 13.5508 14.5471 13.6476C14.0456 13.7434 13.5171 13.7893 12.9406 13.7893H9.84977V13.7916C9.54555 13.7918 9.25459 13.9644 9.11884 14.2587L3.87764 25.5354H5.65305L9.84977 16.5058ZM1.26758 27.1487C1.26758 31.8885 5.10995 35.7308 9.84966 35.7308C14.5894 35.7308 18.4317 31.8884 18.4317 27.1487H1.26758ZM37.9687 54.0823H21.0313C19.9809 54.0823 19.0791 54.6031 18.5539 55.5127L17.234 57.799H41.7661L40.4462 55.5127C39.921 54.6031 39.0192 54.0823 37.9688 54.0823H37.9687ZM27.5124 25.937L25.0045 52.2457H33.9955L31.4876 25.937C30.8391 26.0345 30.1756 26.0855 29.5 26.0855C28.8244 26.0855 28.1609 26.0346 27.5124 25.937ZM17.8646 12.8367C17.8646 6.42797 23.0915 1.20105 29.5001 1.20105C35.9088 1.20105 41.1358 6.42797 41.1358 12.8367C41.1358 19.2455 35.9089 24.4724 29.5001 24.4724C23.0914 24.4724 17.8646 19.2455 17.8646 12.8367ZM22.851 12.6348L25.7582 17.6703C25.9616 18.0226 26.2861 18.2395 26.6893 18.2925C27.0926 18.3455 27.4622 18.2201 27.7498 17.9325L35.9277 9.75467C36.4714 9.21088 36.4714 8.32092 35.9277 7.77713C35.3839 7.23334 34.4939 7.23334 33.9501 7.77713L27.1829 14.5444L25.2731 11.2366C24.8884 10.5705 24.0289 10.3402 23.3628 10.7247C22.6968 11.1092 22.4664 11.9689 22.851 12.635V12.6348Z" fill="black"/>
</g>
</svg>
