<svg width="59" height="59" viewBox="0 0 59 59" fill="none" xmlns="http://www.w3.org/2000/svg">
<g id="empowerment">
<path id="Vector" fill-rule="evenodd" clip-rule="evenodd" d="M16.9273 25.9366C16.5044 25.9366 16.1616 25.5938 16.1616 25.1709C16.1616 24.748 16.5044 24.4052 16.9273 24.4052H22.5517C22.9734 24.4052 23.3174 24.7492 23.3174 25.1709C23.3174 25.5926 22.9734 25.9366 22.5517 25.9366H16.9273ZM36.62 33.4297C36.321 33.1307 35.8362 33.1307 35.5372 33.4297C35.2382 33.7287 35.2382 34.2135 35.5372 34.5125L38.7629 37.7381C39.0619 38.0371 39.5466 38.0371 39.8456 37.7381C40.1446 37.4391 40.1446 36.9544 39.8456 36.6554L36.62 33.4297ZM22.38 33.4297C22.679 33.1307 23.1637 33.1307 23.4628 33.4297C23.7618 33.7287 23.7618 34.2135 23.4628 34.5125L20.2371 37.7381C19.9381 38.0371 19.4533 38.0371 19.1543 37.7381C18.8553 37.4391 18.8553 36.9544 19.1543 36.6554L22.38 33.4297ZM48.078 43.531C47.1083 43.531 46.9387 44.0502 45.8614 44.369C44.6997 44.7127 43.4283 44.5304 42.4126 43.8699C41.7983 43.4703 41.3092 43.531 40.6155 43.531C39.5984 43.531 38.7677 44.3617 38.7677 45.3787V52.4969C38.7677 53.5139 39.5983 54.3446 40.6155 54.3446H48.7405C49.7575 54.3446 50.5882 53.5139 50.5882 52.4969V45.3787C50.5882 44.3616 49.7575 43.531 48.7405 43.531H48.078ZM48.0459 13.8743C46.1175 15.8027 47.4897 19.1152 50.2168 19.1152C52.9438 19.1152 54.3161 15.8027 52.3876 13.8743C51.1884 12.6752 49.245 12.6752 48.0459 13.8743ZM53.6168 20.2618C52.647 20.2618 52.4779 20.7809 51.4002 21.0998C50.2387 21.4434 48.9669 21.2613 47.9514 20.6006C47.3371 20.201 46.8481 20.2617 46.1543 20.2617C45.1371 20.2617 44.3065 21.0923 44.3065 22.1095V29.2275C44.3065 30.2446 45.1371 31.0753 46.1543 31.0753H54.2793C55.2963 31.0753 56.127 30.2445 56.127 29.2275V22.1096C56.127 21.0924 55.2964 20.2618 54.2793 20.2618H53.6168ZM8.78319 12.975C6.0561 12.975 4.68387 16.2875 6.61235 18.2158C8.54082 20.1443 11.8533 18.7721 11.8533 16.045C11.8533 14.3495 10.4789 12.975 8.78319 12.975ZM4.72081 20.2618C3.70365 20.2618 2.87305 21.0924 2.87305 22.1096V29.2276C2.87305 30.2448 3.70377 31.0754 4.72081 31.0754H12.8458C13.8629 31.0754 14.6936 30.2446 14.6936 29.2276V22.1096C14.6936 21.0924 13.863 20.2618 12.8458 20.2618C12.152 20.2618 11.663 20.2011 11.0487 20.6007C9.67764 21.4925 7.88911 21.4926 6.51807 20.6007C5.90364 20.2011 5.41453 20.2618 4.72081 20.2618ZM14.3221 36.2441C11.5951 36.2441 10.2228 39.5566 12.1513 41.4851C14.0797 43.4136 17.3922 42.0413 17.3922 39.3142C17.3921 37.6188 16.0175 36.2441 14.3221 36.2441ZM10.2596 43.531C9.24245 43.531 8.41185 44.3616 8.41185 45.3787V52.4969C8.41185 53.5139 9.24257 54.3446 10.2596 54.3446H18.3846C19.4017 54.3446 20.2324 53.5139 20.2324 52.4969V45.3787C20.2324 44.3616 19.4017 43.531 18.3846 43.531C17.6909 43.531 17.2018 43.4703 16.5875 43.8699C15.2161 44.7617 13.4283 44.7617 12.0569 43.8699C11.4423 43.4703 10.9533 43.531 10.2596 43.531ZM42.5071 37.1434C40.5787 39.0719 41.9509 42.3844 44.678 42.3844C47.4051 42.3844 48.7773 39.072 46.8488 37.1435C45.6496 35.9443 43.7062 35.9443 42.5071 37.1434ZM30.426 10.2199C30.8632 9.98971 31.3606 9.85921 31.8871 9.85921H32.9542C33.0145 9.85921 33.0636 9.81012 33.0636 9.74982V6.055C33.0636 4.83087 31.5675 4.17739 30.6773 5.06758C30.4233 5.3214 30.2657 5.67103 30.2657 6.055V10.1232C30.2657 10.1626 30.2848 10.1964 30.3186 10.2167C30.3523 10.2372 30.3911 10.2382 30.426 10.2199ZM21.607 12.2644C21.607 12.5181 21.5921 13.5944 21.6235 13.7959C21.8079 14.9809 23.3326 15.4185 24.1023 14.4476C24.46 13.9964 24.4049 13.5954 24.4049 13.0302V9.25304C24.4049 8.02891 22.9087 7.37542 22.0184 8.26561C21.7646 8.51943 21.6068 8.86907 21.6068 9.25304V12.2644H21.607ZM25.9364 12.2644C25.9364 12.5181 25.9215 13.5944 25.9529 13.7959C26.1373 14.9809 27.662 15.4185 28.4317 14.4476C28.7906 13.9951 28.7343 13.5927 28.7343 13.0122V6.055C28.7343 4.83087 27.2382 4.17727 26.3478 5.06758C26.094 5.3214 25.9363 5.67103 25.9363 6.055V12.2644H25.9364ZM34.5951 7.97911V9.7497C34.5951 9.81 34.6442 9.85909 34.7045 9.85909H35.7716C36.2981 9.85909 36.7955 9.9896 37.2326 10.2198C37.2676 10.2382 37.3064 10.237 37.3401 10.2166C37.3739 10.1963 37.393 10.1625 37.393 10.1231V7.97911C37.393 6.75498 35.8969 6.1015 35.0066 6.99169C34.7528 7.24562 34.5951 7.59514 34.5951 7.97911ZM29.6417 15.3862C28.5534 16.777 26.492 16.9019 25.2486 15.636C25.2272 15.6143 25.201 15.6032 25.1706 15.6032C25.1401 15.6032 25.1139 15.6142 25.0926 15.6359C24.2208 16.5212 22.8881 16.7662 21.763 16.2351C21.728 16.2186 21.6903 16.2209 21.6577 16.2416C21.6251 16.2622 21.6068 16.2954 21.6068 16.334V20.2513C21.6068 20.6916 21.747 21.031 22.0589 21.3428L23.5924 22.8764C24.1797 23.4637 24.4931 24.219 24.4931 25.0506V32.3197C24.4931 32.5911 24.6727 32.8201 24.9362 32.8849C27.986 33.6343 31.014 33.6347 34.0636 32.8853C34.3271 32.8205 34.5067 32.5914 34.5067 32.32V24.6946C34.5067 23.7639 34.8977 22.9329 35.6158 22.3343L36.8403 21.3139C37.2122 21.0041 37.393 20.6138 37.393 20.1261V13.012C37.393 12.1219 36.6618 11.3906 35.7716 11.3906H31.8872C30.4657 11.3906 29.7134 13.1275 30.7426 14.1566C31.0368 14.4508 31.4421 14.6335 31.8872 14.6335H34.2967C34.7382 14.6335 35.0824 14.9874 35.0591 15.4699C35.059 15.4714 35.059 15.4728 35.059 15.4744L35.0476 17.02C35.0462 17.3764 34.8007 17.6748 34.4699 17.7572L34.4704 17.7588C31.5983 18.4871 30.7963 20.4936 30.2509 23.2785C30.17 23.6932 29.7682 23.9636 29.3535 23.8827C28.9389 23.8017 28.6684 23.3999 28.7494 22.9853C29.3486 19.926 30.3876 17.5015 33.4526 16.4656C33.4976 16.4503 33.5266 16.4102 33.527 16.3628L33.5276 16.2751C33.5278 16.2449 33.5172 16.2187 33.4958 16.1972C33.4745 16.1757 33.4485 16.1649 33.4182 16.1649H31.8872C31.0885 16.1649 30.357 15.8646 29.8004 15.3715C29.777 15.3507 29.7491 15.3416 29.7179 15.3444C29.6868 15.3474 29.6611 15.3615 29.6417 15.3862ZM42.069 25.9366H36.4446C36.0229 25.9366 35.6789 25.5926 35.6789 25.1709C35.6789 24.7492 36.0229 24.4052 36.4446 24.4052H42.069C42.4919 24.4052 42.8347 24.748 42.8347 25.1709C42.8348 25.5937 42.4919 25.9366 42.069 25.9366Z" fill="black"/>
</g>
</svg>
