<svg width="59" height="59" viewBox="0 0 59 59" fill="none" xmlns="http://www.w3.org/2000/svg">
<g id="high-five" clip-path="url(#clip0_90_1151)">
<path id="Vector" d="M29.5 6.91406C30.4552 6.91406 31.2285 6.14073 31.2285 5.18555V1.72852C31.2285 0.773331 30.4552 0 29.5 0C28.5448 0 27.7715 0.773331 27.7715 1.72852V5.18555C27.7715 6.14073 28.5448 6.91406 29.5 6.91406Z" fill="black"/>
<path id="Vector_2" d="M37.6362 9.86469L41.0932 6.40766C41.7684 5.73246 41.7684 4.63863 41.0932 3.96343C40.418 3.28823 39.3242 3.28823 38.649 3.96343L35.1919 7.42046C34.5167 8.09566 34.5167 9.18949 35.1919 9.86469C35.8671 10.5399 36.961 10.5399 37.6362 9.86469Z" fill="black"/>
<path id="Vector_3" d="M21.3638 9.86469C22.039 10.5399 23.1329 10.5399 23.8081 9.86469C24.4833 9.18949 24.4833 8.09566 23.8081 7.42046L20.351 3.96343C19.6758 3.28823 18.582 3.28823 17.9068 3.96343C17.2316 4.63863 17.2316 5.73246 17.9068 6.40766L21.3638 9.86469Z" fill="black"/>
<path id="Vector_4" d="M15.5566 24.4297C15.5566 20.6166 12.4557 17.5156 8.64258 17.5156C4.82949 17.5156 1.72852 20.6166 1.72852 24.4297C1.72852 28.2428 4.82949 31.3438 8.64258 31.3438C12.4557 31.3438 15.5566 28.2428 15.5566 24.4297Z" fill="black"/>
<path id="Vector_5" d="M29.5 13.9434C26.6407 13.9434 24.3145 16.2697 24.3145 19.1289C24.3145 25.7999 18.7706 31.3438 12.0996 31.3438H8.64258C3.87746 31.3438 0 35.2212 0 39.9863V57.2715C0 58.2267 0.773331 59 1.72852 59H15.5566C16.5105 59 17.2622 58.2267 17.2622 57.2733L17.2721 41.109C27.3664 38.7305 34.6855 29.6418 34.6855 19.1289C34.6855 16.2697 32.3593 13.9434 29.5 13.9434Z" fill="black"/>
<path id="Vector_6" d="M57.2715 24.4297C57.2715 20.6166 54.1705 17.5156 50.3574 17.5156C46.5443 17.5156 43.4434 20.6166 43.4434 24.4297C43.4434 28.2428 46.5443 31.3438 50.3574 31.3438C54.1705 31.3438 57.2715 28.2428 57.2715 24.4297Z" fill="black"/>
<path id="Vector_7" d="M50.3576 31.3438H46.9006C42.9259 31.3438 39.3077 29.2763 37.1007 26.3073C36.0893 29.8759 34.3275 33.1146 31.9746 35.8879C34.7308 38.3209 38.1365 40.252 41.7277 41.1072L41.738 57.2733C41.738 58.2267 42.4897 59.0001 43.4436 59.0001H57.2717C58.2269 59.0001 59.0002 58.2267 59.0002 57.2715V39.9864C59.0002 35.2213 55.1228 31.3438 50.3576 31.3438Z" fill="black"/>
</g>
<defs>
<clipPath id="clip0_90_1151">
<rect width="59" height="59" fill="white"/>
</clipPath>
</defs>
</svg>
