<svg width="59" height="59" viewBox="0 0 59 59" fill="none" xmlns="http://www.w3.org/2000/svg">
<g id="innovation">
<g id="Group">
<path id="Vector" d="M50.2777 10.0385L45.3892 5.15005C44.714 4.4749 43.6201 4.4749 42.945 5.15005L41.2789 6.81611C39.2348 5.55188 37.0268 4.6353 34.6855 4.08494V1.72852C34.6855 0.773107 33.9124 0 32.957 0H26.043C25.0876 0 24.3145 0.773107 24.3145 1.72852V4.08494C21.9732 4.63519 19.7652 5.55176 17.7211 6.81611L16.055 5.15005C15.3799 4.4749 14.286 4.4749 13.6108 5.15005L8.72232 10.0385C8.04716 10.7137 8.04716 11.8076 8.72232 12.4828L10.3884 14.1488C9.12414 16.193 8.20757 18.401 7.65721 20.7422H5.30078C4.34537 20.7422 3.57227 21.5153 3.57227 22.4707V29.3848C3.57227 30.3402 4.34537 31.1133 5.30078 31.1133H7.65721C8.16021 33.2402 8.96881 35.5013 10.0677 37.3969C10.3782 37.9303 10.9472 38.2578 11.5633 38.2578H17.0904C16.8596 37.9422 16.6266 37.6221 16.4011 37.3615C13.7813 34.34 12.2148 29.9199 12.2148 25.9277C12.2148 16.3973 19.9695 8.64258 29.5 8.64258C39.0305 8.64258 46.7852 16.3973 46.7852 25.9277C46.7852 29.8743 45.244 34.2656 42.6614 37.2872C42.42 37.57 42.1701 37.9135 41.9233 38.2578H47.4367C48.0528 38.2578 48.6216 37.9303 48.9323 37.3969C50.0312 35.5013 50.8398 33.2402 51.3428 31.1133H53.6992C54.6546 31.1133 55.4277 30.3402 55.4277 29.3848V22.4707C55.4277 21.5153 54.6546 20.7422 53.6992 20.7422H51.3428C50.7925 18.401 49.876 16.193 48.6116 14.1488L50.2777 12.4828C50.9528 11.8076 50.9528 10.7138 50.2777 10.0385Z" fill="black"/>
<path id="Vector_2" d="M26.043 55.543C26.043 57.4487 27.5943 59 29.5 59C31.4057 59 32.957 57.4487 32.957 55.543V53.8145H26.043V55.543Z" fill="black"/>
<path id="Vector_3" d="M40.0331 35.0422C42.0655 32.6638 43.3281 29.0286 43.3281 25.9277C43.3281 18.303 37.1247 12.0996 29.5 12.0996C21.8753 12.0996 15.6719 18.303 15.6719 25.9277C15.6719 29.1113 16.921 32.684 19.0159 35.0996C20.3169 36.6042 21.7701 38.8862 22.3211 41.7148H27.3917L24.3482 26.267C24.1608 25.3301 24.7685 24.4204 25.7037 24.233C26.6423 24.0372 27.5503 24.6516 27.7377 25.5885L29.5 34.5151L31.2623 25.5885C31.4479 24.6516 32.3443 24.0355 33.2963 24.233C34.2314 24.4204 34.8392 25.3301 34.6518 26.267L31.6083 41.7148H36.6928C37.2646 38.8742 38.7273 36.5711 40.0331 35.0422Z" fill="black"/>
<path id="Vector_4" d="M36.4141 46.9004V45.1719H22.5859V46.9004C22.5859 48.8061 24.1372 50.3574 26.043 50.3574H32.957C34.8628 50.3574 36.4141 48.8061 36.4141 46.9004Z" fill="black"/>
</g>
</g>
</svg>
